<?xml version="1.0" encoding="utf-8"?>
<!-- Generator: Adobe Illustrator 27.0.1, SVG Export Plug-In . SVG Version: 6.00 Build 0)  -->
<svg version="1.1" id="Capa_1" xmlns="http://www.w3.org/2000/svg" xmlns:xlink="http://www.w3.org/1999/xlink" x="0px" y="0px"
	 viewBox="0 0 24 24" style="enable-background:new 0 0 24 24;" xml:space="preserve">
<style type="text/css">
	.st0{fill-rule:evenodd;clip-rule:evenodd;fill:#4CA154;}
</style>
<path class="st0" d="M12,21c5,0,9-4,9-9c0-1.8-0.5-3.5-1.5-5l-7.2,8c-0.7,0.8-1.9,0.9-2.7,0.3l-3.3-2.5c-0.4-0.3-0.5-1-0.2-1.4
	c0.3-0.4,1-0.5,1.4-0.2l3.3,2.5l7.3-8.2C16.6,3.9,14.4,3,12,3c-5,0-9,4-9,9C3,17,7,21,12,21z"/>
</svg>
