<?xml version="1.0" encoding="utf-8"?>
<!-- Generator: Adobe Illustrator 27.0.1, SVG Export Plug-In . SVG Version: 6.00 Build 0)  -->
<svg version="1.1" id="Capa_1" xmlns="http://www.w3.org/2000/svg" xmlns:xlink="http://www.w3.org/1999/xlink" x="0px" y="0px"
	 viewBox="0 0 24 24" style="enable-background:new 0 0 24 24;" xml:space="preserve">
<style type="text/css">
	.st0{fill:url(#SVGID_1_);}
</style>
<linearGradient id="SVGID_1_" gradientUnits="userSpaceOnUse" x1="12" y1="-0.76" x2="12" y2="27.1418">
	<stop  offset="5.160950e-02" style="stop-color:#FFFFFF;stop-opacity:0.8"/>
	<stop  offset="0.1875" style="stop-color:#FFFEFD;stop-opacity:0.8613"/>
	<stop  offset="0.2537" style="stop-color:#FEFCF5;stop-opacity:0.8912"/>
	<stop  offset="0.3049" style="stop-color:#FEF7E8;stop-opacity:0.9143"/>
	<stop  offset="0.3483" style="stop-color:#FDF1D6;stop-opacity:0.934"/>
	<stop  offset="0.3868" style="stop-color:#FBE9BD;stop-opacity:0.9513"/>
	<stop  offset="0.4219" style="stop-color:#FADFA0;stop-opacity:0.9672"/>
	<stop  offset="0.4543" style="stop-color:#F8D37C;stop-opacity:0.9818"/>
	<stop  offset="0.4839" style="stop-color:#F6C654;stop-opacity:0.9952"/>
	<stop  offset="0.4946" style="stop-color:#F5C044"/>
	<stop  offset="0.5548" style="stop-color:#F5C044"/>
	<stop  offset="0.5814" style="stop-color:#F1BD43;stop-opacity:0.9636"/>
	<stop  offset="0.6094" style="stop-color:#E4B33F;stop-opacity:0.9254"/>
	<stop  offset="0.6379" style="stop-color:#CFA23A;stop-opacity:0.8863"/>
	<stop  offset="0.6669" style="stop-color:#B28B31;stop-opacity:0.8467"/>
	<stop  offset="0.6962" style="stop-color:#8C6E27;stop-opacity:0.8067"/>
	<stop  offset="0.7257" style="stop-color:#5D491A;stop-opacity:0.7662"/>
	<stop  offset="0.7549" style="stop-color:#281F0B;stop-opacity:0.7263"/>
	<stop  offset="0.7741" style="stop-color:#000000;stop-opacity:0.7"/>
</linearGradient>
<path class="st0" d="M10.3,7.2c0.6-1.6,1-2.4,1.5-2.5c0.1,0,0.3,0,0.4,0c0.5,0.1,0.8,0.9,1.5,2.5c0.4,0.9,0.5,1.4,0.9,1.7
	c0.1,0.1,0.2,0.2,0.3,0.2c0.4,0.2,0.9,0.3,1.9,0.4c1.7,0.1,2.5,0.2,2.8,0.7c0.1,0.1,0.1,0.2,0.1,0.3c0.1,0.5-0.5,1.1-1.8,2.2
	L17.5,13c-0.6,0.5-0.9,0.8-1,1.1c-0.1,0.2-0.2,0.4-0.2,0.6c-0.1,0.4,0,0.7,0.2,1.5l0.1,0.3c0.3,1.4,0.5,2,0.3,2.4
	c-0.2,0.3-0.5,0.5-0.8,0.5c-0.4,0-0.9-0.4-2-1.3c-0.7-0.6-1.1-0.9-1.5-1c-0.4-0.1-0.7-0.1-1.1,0c-0.4,0.1-0.7,0.4-1.5,1
	c-1.1,0.9-1.6,1.3-2,1.3c-0.3,0-0.7-0.2-0.8-0.5c-0.2-0.3,0-1,0.3-2.4l0.1-0.3c0.2-0.8,0.3-1.1,0.2-1.5c0-0.2-0.1-0.4-0.2-0.6
	c-0.2-0.3-0.5-0.6-1-1.1l-0.3-0.3c-1.2-1.1-1.8-1.7-1.8-2.2c0-0.1,0.1-0.2,0.1-0.3c0.3-0.5,1.1-0.6,2.8-0.7c1-0.1,1.5-0.1,1.9-0.4
	C9.2,9.1,9.3,9,9.4,8.9C9.8,8.6,9.9,8.1,10.3,7.2z"/>
</svg>
